
<svg xmlns="http://www.w3.org/2000/svg" width="65" height="65"><g fill="none" fill-rule="evenodd"><rect width="65" height="65" fill="#232F3E" fill-rule="nonzero" rx="16"/><path fill="#FFFFFF" d="M23.2463656 29.968997c0 .5641844.0564246 1.0216312.1551676 1.3570922.1128492.335461.2539107.7014184.4513968 1.0978723.0705308.1219858.0987431.2439716.0987431.3507092 0 .1524823-.0846369.3049646-.2680169.4574468l-.8886875.6404256c-.1269553.0914893-.2540517.137234-.3667599.137234-.1410615 0-.282123-.0762411-.4231845-.2134752-.1974861-.2287234-.3667599-.472695-.5078214-.7166666-.1410615-.2592199-.282123-.5489362-.4372906-.8996454-1.10042078 1.4028368-2.48268242 2.1042553-4.14720813 2.1042553-1.18491661 0-2.13002866-.3659575-2.82123002-1.0978724-.69120135-.7319148-1.0438551-1.7078014-1.0438551-2.9276595 0-1.29609932.42304344-2.34822698 1.28365965-3.14113478.86047516-.7929078 2.00307331-1.1893617 3.45600677-1.1893617.47946804 0 .97332436.04574468 1.49525191.12198581.52192755.07624114 1.05796126.19822695 1.62220726.335461v-1.11312057c0-1.15886525-.2256984-1.96702128-.66298905-2.43971631-.45139681-.47269504-1.21312891-.70141844-2.29930247-.70141844-.49371525 0-1.00153665.06099291-1.5234642.19822695-.52192756.13723404-1.02974896.30496454-1.52346421.51843971-.2256984.10673759-.3949722.1677305-.49371526.19822696-.09874305.03049645-.1692738.04574468-.22583946.04574468-.19734504 0-.29608809-.15248227-.29608809-.47269504v-.74716312c0-.24397163.0282123-.42695035.09874305-.53368794s.19734504-.21347518.3949722-.32021277c.4935742-.27446808 1.08617356-.50319149 1.77737491-.68617021.69120136-.19822695 1.42472116-.28971631 2.20055942-.28971631 1.67863185 0 2.90586692.41170212 3.69581132 1.23510638.7758382.82340425 1.1708105 2.07375886 1.1708105 3.75106383V29.968997h.0282123zm-5.72709698 2.3177305c.46550295 0 .94497099-.0914894 1.45293346-.2744681.5078214-.1829788.9592182-.5184397 1.34008426-.9758866.2256984-.2897163.39483114-.609929.4796091-.9758865.0846369-.3659574.1410615-.80815601.1410615-1.32659572v-.64042553c-.40907835-.10673759-.84636901-.19822695-1.29776581-.25921986-.4513968-.06099291-.88868745-.09148936-1.3259781-.09148936-.94511206 0-1.63631341.19822695-2.10181637.60992907-.46550295.41170213-.69120135.99113476-.69120135 1.7535461 0 .7166667.1692738 1.2503546.52192755 1.6163121.33854761.3812056.83226286.5641844 1.48114576.5641844zM28.8465071 33.933536c-.2539107 0-.4231845-.0457447-.5360337-.1524823-.1128492-.0914894-.2115922-.3049645-.2962291-.5946809L24.699299 21.39949341c-.084778-.30496453-.1269553-.50319148-.1269553-.60992907 0-.24397163.1127081-.38120568.3385476-.38120568h1.3824027c.2678758 0 .4513968.04574468.5501398.15248227.1128492.09148936.1974861.30496454.282123.59468085L29.49539 31.249848l2.2004184-10.09432622c.0706718-.30496454.1551676-.50319149.2681579-.59468085.1128492-.09148936.3101942-.15248227.564246-.15248227h1.128492c.2678758 0 .4513968.04574468.564246.15248227.1128492.09148936.2115923.30496454.2680169.59468085l2.2286306 10.21631202 2.440505-10.21631202c.0846369-.30496454.18338-.50319149.282123-.59468085.1128492-.09148936.2962292-.15248227.5501399-.15248227h1.3118719c.2256984 0 .3526538.12198582.3526538.38120568 0 .07624113-.0141062.15248227-.0282123.24397163-.0142472.09148936-.0423185.21347517-.0987431.38120567L38.1283539 33.2016211c-.084778.3049645-.183521.5031915-.2963702.5946808-.1127082.0914894-.2960881.1524823-.5358927.1524823h-1.2132699c-.2678758 0-.4512558-.0457447-.564246-.1524823-.1128492-.1067376-.2115923-.3049645-.2678758-.6099291l-2.1864533-9.83510634-2.1723471 9.81985814c-.0706718.3049646-.1551677.5031915-.2680169.6099291-.1128492.1067376-.3103353.1524823-.564246.1524823h-1.2131289zm18.1264029.4117021c-.7335198 0-1.4670396-.0914894-2.1723471-.2744681s-1.2554474-.3812057-1.6222073-.6099291c-.2256984-.137234-.3810071-.2897163-.4372906-.4269503-.0564246-.1372341-.0846369-.2897163-.0846369-.4269504v-.7776596c0-.3202127.1128492-.472695.3244414-.472695.0846369 0 .1691327.0152482.2537696.0457447.084778.0304964.2115923.0914894.3527949.1524823.479468.2287234 1.0015366.4117021 1.5515354.5336879.5643871.1219858 1.1143859.1829787 1.6787729.1829787.8886875 0 1.5798888-.1677305 2.0593569-.5031915.4797501-.335461.7336608-.8234042.7336608-1.4485815 0-.4269504-.1269553-.7776596-.3810071-1.06737591-.2537696-.28971631-.7333787-.54893617-1.4247211-.7929078l-2.0452507-.68617021c-1.029749-.35070922-1.7914811-.86914894-2.256984-1.55531915-.465503-.67092199-.7054486-1.41808511-.7054486-2.21099291 0-.64042553.1270964-1.20460993.3810071-1.69255319.2537696-.48794326.5924583-.91489362 1.0156428-1.25035461.4231845-.35070922.9027936-.60992908 1.4670396-.7929078.564246-.18297872 1.1567043-.25921986 1.7773749-.25921986.3101943 0 .6347768.01524823.944971.06099291.3245825.04574468.6206706.10673759.9168998.1677305.282123.07624113.5501398.15248227.8041916.24397163.2537696.09148936.4513968.18297872.5924583.27446808.1974861.12198582.3385476.24397163.4231845.38120568.0846369.12198581.1269553.28971631.1269553.50319149v.71666666c0 .32021277-.1128492.48794326-.3244414.48794326-.1128492 0-.2962292-.0609929-.5360337-.18297872-.8040506-.3964539-1.7068442-.59468085-2.7083808-.59468085-.8040506 0-1.4388273.13723404-1.876118.42695035-.4372906.28971632-.662989.7319149-.662989 1.3570922 0 .42695036.1410615.7929078.4231845 1.08262412.282123.28971631.8040505.57943262 1.5516765.83865248l2.0030733.68617021c1.0156428.35070922 1.7491626.83865248 2.1864532 1.46382979.4372907.6251773.648883 1.34184397.648883 2.13475175 0 .6556738-.1269554 1.2503546-.3667599 1.7687943-.2539108.5184398-.5924584.9758866-1.029749 1.341844-.4372907.3812057-.9592182.6556738-1.5657827.8539007-.6347767.2134752-1.2977658.3202128-2.0171794.3202128z"/><path fill="#FF9900" d="M49.875507 41.0059372c-4.7051367 3.6744051-11.5411712 5.6250152-17.4188738 5.6250152-8.2375646 0-15.65995361-3.2207748-21.26607398-8.5736119-.44348416-.4233882-.04290398-.9979865.48624514-.6653244 6.06376285 3.7197682 13.54321414 5.9727984 21.28037524 5.9727984 5.2199846 0 10.9548169-1.1491966 16.2320067-3.508074.786573-.3780252 1.4587354.5443563.6863207 1.1491967zm1.9594249-2.3588773c-.6007988-.8165345-3.975769-.3931463-5.5060111-.1965732-.4577855.0604841-.5292921-.3629042-.1144106-.6804453 2.6886496-1.9959732 7.1076167-1.4213748 7.6226076-.7560505.5148477.6804454-.1430133 5.3528371-2.66019 7.5907463-.3859928.3477832-.7578273.1663311-.5863544-.2872991.5720531-1.4969799 1.8450143-4.8689648 1.2443585-5.6703782z"/></g></svg>